<svg xmlns="http://www.w3.org/2000/svg" width="131" height="118" viewBox="0 0 131 118" version="1.1"><path d="M 28.713 24.178 C 27.208 26.799, 27 30.546, 27 54.999 L 27 82.837 30.750 85.116 C 32.813 86.369, 34.725 87.682, 35 88.033 C 35.275 88.384, 38.142 89.870, 41.371 91.335 C 47.024 93.901, 47.901 94, 65 94 C 82.109 94, 82.971 93.903, 88.575 91.337 C 91.774 89.873, 95.893 87.655, 97.728 86.410 C 99.564 85.164, 101.586 83.971, 102.223 83.759 C 103.052 83.483, 103.455 75.660, 103.647 56.134 C 103.899 30.303, 103.807 28.691, 101.856 24.948 L 99.798 21 86.833 21 C 79.703 21, 73 21.465, 71.939 22.033 C 70.202 22.962, 70.054 23.931, 70.463 31.698 C 70.754 37.228, 71.381 40.625, 72.209 41.150 C 72.919 41.601, 76.313 41.976, 79.750 41.985 L 86 42 86 61.918 C 86 72.873, 86.273 82.548, 86.607 83.418 C 86.941 84.288, 88.403 85.056, 89.857 85.125 C 91.551 85.205, 90.884 85.538, 88 86.051 C 82.598 87.012, 48.555 87.261, 44.109 86.372 C 41.258 85.802, 41.131 85.625, 42.734 84.454 C 44.299 83.312, 44.535 80.924, 44.810 63.507 C 45.018 50.364, 44.759 43.415, 44.031 42.538 C 43.145 41.470, 44.159 41.323, 49.490 41.751 C 58.785 42.497, 59.895 41.324, 59.567 31.091 C 59.431 26.820, 58.984 22.783, 58.575 22.121 C 58.046 21.266, 53.862 20.957, 44.128 21.055 L 30.426 21.193 28.713 24.178 M 63.343 23.195 C 62.879 23.913, 62.349 32.372, 62.164 41.994 C 61.935 53.874, 61.454 59.726, 60.664 60.229 C 60.024 60.636, 58.263 60.976, 56.750 60.985 C 55.237 60.993, 54 61.353, 54 61.784 C 54 62.215, 56.461 64.998, 59.468 67.968 L 64.936 73.368 67.133 71.434 C 70.727 68.271, 75.944 62.556, 75.973 61.750 C 75.988 61.337, 74.961 61, 73.691 61 C 68.354 61, 68.047 59.940, 67.763 40.513 C 67.532 24.691, 67.301 22.487, 65.843 22.207 C 64.932 22.032, 63.807 22.477, 63.343 23.195 M 32.174 28.868 C 33.453 30.446, 34.657 31.602, 34.848 31.437 C 35.390 30.970, 31.603 26.067, 30.674 26.031 C 30.220 26.014, 30.895 27.291, 32.174 28.868 M 97.149 27.604 C 96.406 28.444, 95.996 29.330, 96.239 29.572 C 96.481 29.814, 97.496 29.110, 98.494 28.006 C 99.493 26.903, 99.903 26.017, 99.405 26.038 C 98.907 26.059, 97.892 26.764, 97.149 27.604 M 39.032 35.528 C 39.086 37.177, 41.938 40.395, 42.684 39.649 C 43.072 39.262, 42.401 37.957, 41.194 36.750 C 39.987 35.543, 39.014 34.993, 39.032 35.528 M 37.813 85.683 C 38.534 85.972, 39.397 85.936, 39.729 85.604 C 40.061 85.272, 39.471 85.036, 38.417 85.079 C 37.252 85.127, 37.015 85.364, 37.813 85.683" stroke="none" fill="#e94d4b" fill-rule="evenodd"/></svg>