<svg xmlns="http://www.w3.org/2000/svg" width="115" height="137" viewBox="0 0 115 137" version="1.1"><path d="M 56.666 8.477 C 55.853 9.290, 54.684 13.227, 54.068 17.227 C 53.452 21.227, 52.509 26.975, 51.974 30 C 51.438 33.025, 50.570 41.575, 50.044 49 C 49.518 56.425, 48.545 68.847, 47.882 76.606 C 47.218 84.364, 46.959 91.451, 47.306 92.356 C 47.721 93.437, 49.106 94, 51.354 94 C 55.373 94, 57.211 91.765, 58.768 84.985 C 59.335 82.518, 61.235 75.100, 62.992 68.500 C 64.748 61.900, 67.024 53.350, 68.048 49.500 C 73.035 30.759, 77.376 9.418, 76.492 7.988 C 75.469 6.332, 58.389 6.754, 56.666 8.477 M 39.475 103.750 C 39.069 104.713, 38.167 108.650, 37.471 112.500 C 35.626 122.710, 36.098 123.234, 46.655 122.694 C 52.103 122.415, 55.638 121.761, 56.468 120.879 C 57.882 119.377, 60.366 104.401, 59.448 102.915 C 59.136 102.412, 54.682 102, 49.548 102 C 41.607 102, 40.104 102.261, 39.475 103.750" stroke="none" fill="#e8625c" fill-rule="evenodd"/></svg>