<?xml version="1.0" encoding="UTF-8" standalone="no"?>
<svg
   width="111"
   height="103"
   viewBox="0 0 111 103"
   version="1.1"
   id="svg1"
   sodipodi:docname="no-repeat.svg"
   inkscape:version="1.4.2 (f4327f4, 2025-05-13)"
   xmlns:inkscape="http://www.inkscape.org/namespaces/inkscape"
   xmlns:sodipodi="http://sodipodi.sourceforge.net/DTD/sodipodi-0.dtd"
   xmlns="http://www.w3.org/2000/svg"
   xmlns:svg="http://www.w3.org/2000/svg">
  <defs
     id="defs1" />
  <sodipodi:namedview
     id="namedview1"
     pagecolor="#505050"
     bordercolor="#eeeeee"
     borderopacity="1"
     inkscape:showpageshadow="0"
     inkscape:pageopacity="0"
     inkscape:pagecheckerboard="0"
     inkscape:deskcolor="#505050"
     inkscape:zoom="8.3009709"
     inkscape:cx="55.535673"
     inkscape:cy="51.5"
     inkscape:window-width="1920"
     inkscape:window-height="1057"
     inkscape:window-x="-8"
     inkscape:window-y="-8"
     inkscape:window-maximized="1"
     inkscape:current-layer="svg1" />
  <path
     id="path1"
     d="M 58.451172 9 C 33.616172 9 18.893812 9.3642813 18.507812 9.9882812 C 18.110812 10.631281 31.626266 11.068281 57.197266 11.238281 L 96.5 11.5 L 96.761719 52.25 L 97.021484 93 L 56.011719 93 L 15 93 L 14.964844 90.75 C 14.945844 89.513 14.833844 71.513953 14.714844 50.751953 C 14.574844 26.193953 14.151 13.089953 13.5 13.251953 C 11.899 13.650953 11.719406 92.522656 13.316406 93.847656 C 15.291406 95.487656 95.510562 95.651531 97.476562 94.019531 C 98.794562 92.925531 99 87.329984 99 52.458984 C 99 30.296984 98.726578 11.452031 98.392578 10.582031 C 97.853578 9.1770312 93.396172 9 58.451172 9 z M 93.658203 11.994141 L 56.458984 12.025391 C 21.925984 12.054391 19.141906 12.186422 17.628906 13.857422 C 16.184906 15.453422 16 19.863906 16 52.628906 C 16 80.050906 16.309219 89.910781 17.199219 90.800781 C 18.089219 91.690781 27.995125 92 55.578125 92 C 87.982125 92 92.920922 91.799313 94.044922 90.445312 C 95.811922 88.316312 96.513781 17.623094 94.800781 14.246094 L 93.658203 11.994141 z M 55.693359 14.314453 L 92.5 14.5 L 92.761719 52.261719 L 93.023438 90.023438 L 55.761719 89.761719 L 18.5 89.5 L 18.236328 53.003906 C 18.092328 32.931906 18.180641 15.972359 18.431641 15.318359 C 18.775641 14.422359 28.011359 14.174453 55.693359 14.314453 z M 44.392578 35 L 41.167969 38.328125 L 37.941406 41.65625 L 38.220703 55.578125 L 38.5 69.5 L 41.5 69.5 C 44.375 69.5 44.512641 69.299547 44.806641 64.685547 C 45.190641 58.679547 47.463031 58.803891 47.582031 64.837891 C 47.702031 70.938891 49 71.240969 49 65.167969 C 49 61.594969 49.401781 60 50.300781 60 C 51.195781 60 51.560656 61.418828 51.472656 64.548828 C 51.402656 67.049828 51.718828 69.326422 52.173828 69.607422 C 52.628828 69.888422 53 67.840594 53 65.058594 C 53 62.276594 53.45 60 54 60 C 54.55 60 55.032266 60.337 55.072266 60.75 C 55.113266 61.163 55.295563 63.218359 55.476562 65.318359 C 55.978563 71.153359 57 70.995031 57 65.082031 C 57 61.326031 57.356 59.951953 58.25 60.251953 C 58.977 60.495953 59.5 62.376047 59.5 64.748047 C 59.5 66.991047 59.837 69.166078 60.25 69.580078 C 60.663 69.994078 61 67.970031 61 65.082031 C 61 61.328031 61.356 59.952 62.25 60.25 C 62.984 60.495 63.524547 62.487031 63.560547 65.082031 C 63.619547 69.300031 63.765547 69.5135 66.810547 69.8125 L 70 70.126953 L 70 52.5625 L 70 35 L 57.195312 35 L 44.392578 35 z M 56.091797 37.992188 C 56.672456 37.979722 57.003656 39.167828 56.566406 41.5 C 55.955406 44.755 56.087078 45 58.455078 45 C 62.202078 45 61.558 46.973156 57.75 47.160156 L 54.5 47.320312 L 57.75 47.722656 C 59.538 47.944656 61 48.5475 61 49.0625 C 61 50.0245 59.563469 50.386969 57.105469 50.042969 C 55.359469 49.797969 54.035625 51.815 54.015625 54.75 C 54.006625 56.106 53.386078 57 52.455078 57 C 51.230078 57 51.046406 56.273 51.566406 53.5 C 52.190406 50.174 52.082156 50 49.410156 50 C 46.108156 50 47.226 48.397703 51 47.720703 C 51.917 47.556203 52.409415 47.445333 52.445312 47.363281 L 52.447266 47.361328 L 52.447266 47.359375 L 52.447266 47.357422 L 52.447266 47.355469 L 52.447266 47.353516 L 52.447266 47.351562 C 52.447075 47.350861 52.445576 47.3464 52.445312 47.345703 L 52.445312 47.34375 C 52.390367 47.251465 51.676367 47.196391 50.25 47.136719 C 46.064 46.961719 46.020406 45.2225 50.191406 44.8125 C 52.850406 44.5515 53.524703 43.957 54.220703 41.25 C 54.780156 39.075156 55.546329 38.003898 56.091797 37.992188 z " />
</svg>
