<?xml version="1.0" encoding="UTF-8" standalone="no"?>
<svg
   width="130"
   height="163"
   viewBox="0 0 130 163"
   version="1.1"
   id="svg1"
   sodipodi:docname="pause.svg"
   inkscape:version="1.4.2 (f4327f4, 2025-05-13)"
   xmlns:inkscape="http://www.inkscape.org/namespaces/inkscape"
   xmlns:sodipodi="http://sodipodi.sourceforge.net/DTD/sodipodi-0.dtd"
   xmlns="http://www.w3.org/2000/svg"
   xmlns:svg="http://www.w3.org/2000/svg">
  <defs
     id="defs1" />
  <sodipodi:namedview
     id="namedview1"
     pagecolor="#505050"
     bordercolor="#eeeeee"
     borderopacity="1"
     inkscape:showpageshadow="0"
     inkscape:pageopacity="0"
     inkscape:pagecheckerboard="0"
     inkscape:deskcolor="#505050"
     inkscape:zoom="5.2453988"
     inkscape:cx="64.914035"
     inkscape:cy="81.5"
     inkscape:window-width="1920"
     inkscape:window-height="1057"
     inkscape:window-x="-8"
     inkscape:window-y="-8"
     inkscape:window-maximized="1"
     inkscape:current-layer="svg1" />
  <path
     d="M 51 35.647 C 25.379 50.314, 18.867 54.354, 16.978 56.755 C 15.122 59.115, 15 60.881, 15 85.500 C 15 116.197, 14.388 114.349, 26.781 121.098 C 31.026 123.411, 41.321 129.284, 49.658 134.151 C 57.994 139.018, 65.269 143, 65.823 143 C 66.722 143, 93.134 127.804, 108.261 118.584 C 111.840 116.402, 114.427 114.018, 115.092 112.286 C 115.823 110.384, 115.936 101.019, 115.447 82.766 L 114.732 56.033 111.616 53.692 C 102.197 46.615, 69.163 28.990, 65.395 29.032 C 63.704 29.051, 57.715 31.803, 51 35.647 M 56.711 45.996 C 56.330 47.453, 56.885 48.534, 58.585 49.648 C 62.016 51.896, 61.631 52.605, 56.250 53.947 C 38.272 58.431, 25.436 78.045, 28.991 95.604 C 29.648 98.847, 31.268 103.469, 32.592 105.876 C 33.917 108.283, 35 110.668, 35 111.177 C 35 111.686, 33.330 113.632, 31.289 115.501 C 28.136 118.390, 27.838 119.001, 29.306 119.564 C 30.486 120.017, 31.685 119.398, 33.089 117.613 C 35.577 114.451, 38.044 114.285, 40.595 117.108 C 42.903 119.662, 50.635 123.681, 56.901 125.582 C 74.970 131.067, 95.447 119.144, 101.450 99.643 C 104.849 88.604, 102.126 75.742, 94.395 66.306 C 90.331 61.346, 90.555 60.384, 97.112 54.636 C 100.340 51.807, 101.059 50.659, 100.163 49.763 C 99.268 48.868, 97.982 49.583, 94.708 52.796 C 90.335 57.088, 88.255 57.855, 86.297 55.897 C 85.690 55.290, 82.838 54.626, 79.959 54.421 C 77.079 54.215, 73.885 53.781, 72.862 53.456 C 70.375 52.667, 70.493 50.296, 73.058 49.481 C 74.457 49.038, 75.018 48.134, 74.808 46.664 C 74.523 44.663, 73.851 44.478, 65.876 44.213 C 57.874 43.946, 57.214 44.075, 56.711 45.996 M 55.500 60.672 C 53.300 61.428, 50.753 62.937, 49.840 64.024 C 48.927 65.111, 47.497 66, 46.662 66 C 45.828 66, 44.222 67.237, 43.094 68.750 C 41.966 70.263, 40.339 72.232, 39.477 73.126 C 38.615 74.021, 37.818 76.046, 37.705 77.626 C 37.592 79.207, 36.952 81.080, 36.283 81.788 C 33.422 84.817, 36.154 102.400, 40.079 106.216 C 41.050 107.160, 42.127 108.825, 42.473 109.915 C 43.051 111.735, 46.459 113.671, 48.250 113.198 C 48.663 113.089, 49 113.685, 49 114.521 C 49 116.102, 50.728 116.999, 57.500 118.936 C 64.591 120.963, 78.230 118.931, 82.347 115.233 C 83.531 114.169, 85.294 113.018, 86.265 112.675 C 87.236 112.332, 88.422 111.027, 88.900 109.776 C 89.379 108.524, 90.722 106.643, 91.885 105.595 C 93.048 104.547, 94 102.500, 94 101.045 C 94 99.590, 94.490 97.910, 95.088 97.312 C 96.702 95.698, 96.846 85.258, 95.296 82.270 C 94.564 80.858, 94.179 79.487, 94.442 79.224 C 95.332 78.334, 91.959 73, 90.506 73 C 89.712 73, 89.285 72.422, 89.556 71.715 C 90.153 70.159, 86.481 66, 84.511 66 C 83.734 66, 82.719 65.320, 82.253 64.488 C 79.837 60.170, 63.667 57.863, 55.500 60.672 M 55.200 75.200 C 53.534 76.866, 53.534 102.134, 55.200 103.800 C 56.830 105.430, 58.550 105.308, 60.429 103.429 C 62.726 101.131, 62.726 77.869, 60.429 75.571 C 58.550 73.692, 56.830 73.570, 55.200 75.200 M 71.642 75.180 C 70.243 75.964, 70 78.145, 70 89.943 C 70 101.854, 70.229 103.874, 71.641 104.416 C 73.763 105.230, 76.981 104.202, 77.065 102.683 C 77.172 100.748, 77.197 78.638, 77.094 76.867 C 76.980 74.879, 73.889 73.923, 71.642 75.180"
     stroke="none"
     fill="#ef6761"
     fill-rule="evenodd"
     id="path1" />
</svg>
