<svg xmlns="http://www.w3.org/2000/svg" width="62" height="89" viewBox="0 0 62 89" version="1.1"><path d="M 11 11.455 C 11 11.801, 11.955 13.077, 13.122 14.292 C 16.929 18.253, 21 24.264, 21 25.923 C 21 26.816, 24.600 31.126, 29 35.500 C 33.400 39.874, 37 44.306, 37 45.349 C 37 46.391, 33.400 50.933, 29 55.440 C 24.600 59.948, 21 64.239, 21 64.976 C 21 65.713, 19.136 68.731, 16.859 71.683 C 14.581 74.635, 12.965 77.298, 13.267 77.601 C 14.458 78.791, 49 47.394, 49 45.120 C 49 44.193, 44.654 39.625, 39.343 34.967 C 34.031 30.310, 27.230 24.260, 24.229 21.522 C 18.037 15.872, 11 10.517, 11 11.455 M 39.766 30.770 C 47.613 38.322, 54.026 44.867, 54.016 45.315 C 53.997 46.268, 46.548 53.444, 34.619 64 C 26.378 71.291, 24.932 73, 26.998 73 C 28.860 73, 49.466 57.747, 55.460 51.933 C 61.038 46.522, 61.336 46.003, 60.113 43.826 C 57.699 39.528, 29.523 17.084, 26.500 17.051 C 25.950 17.046, 31.920 23.219, 39.766 30.770 M 19.223 41.557 C 16.584 43.405, 16.428 45.197, 18.615 48.535 C 20.608 51.577, 22.316 51.651, 24.961 48.811 C 27.486 46.101, 27.553 43.811, 25.171 41.655 C 22.905 39.604, 22.030 39.590, 19.223 41.557 M 24 74.500 C 24 74.775, 24.225 75, 24.500 75 C 24.775 75, 25 74.775, 25 74.500 C 25 74.225, 24.775 74, 24.500 74 C 24.225 74, 24 74.225, 24 74.500" stroke="none" fill="#cd5752" fill-rule="evenodd"/></svg>