<?xml version="1.0" encoding="UTF-8" standalone="no"?>
<svg
   width="111"
   height="103"
   viewBox="0 0 111 103"
   version="1.1"
   id="svg2"
   sodipodi:docname="repeat-one.svg"
   inkscape:version="1.4.2 (f4327f4, 2025-05-13)"
   xmlns:inkscape="http://www.inkscape.org/namespaces/inkscape"
   xmlns:sodipodi="http://sodipodi.sourceforge.net/DTD/sodipodi-0.dtd"
   xmlns="http://www.w3.org/2000/svg"
   xmlns:svg="http://www.w3.org/2000/svg">
  <defs
     id="defs2" />
  <sodipodi:namedview
     id="namedview2"
     pagecolor="#505050"
     bordercolor="#eeeeee"
     borderopacity="1"
     inkscape:showpageshadow="0"
     inkscape:pageopacity="0"
     inkscape:pagecheckerboard="0"
     inkscape:deskcolor="#505050"
     inkscape:zoom="8.3009709"
     inkscape:cx="55.535673"
     inkscape:cy="51.5"
     inkscape:window-width="1920"
     inkscape:window-height="1057"
     inkscape:window-x="-8"
     inkscape:window-y="-8"
     inkscape:window-maximized="1"
     inkscape:current-layer="svg2" />
  <path
     id="path1"
     d="M 24.128906 3.0800781 C 23.015086 3.1184722 21.300297 4.5247969 18.490234 7.1152344 C 13.722234 11.510234 13.518406 13.220391 17.816406 12.775391 C 20.345406 12.513391 20.486172 12.735078 20.576172 17.080078 C 20.688172 22.449078 21.443312 24 23.945312 24 C 26.207313 24 27.293234 18.073328 26.490234 10.111328 C 25.999172 5.2440156 25.560961 3.0307144 24.128906 3.0800781 z M 23.75 5.0371094 C 23.887 5.0161094 23.908828 9.162 23.798828 14.25 L 23.597656 23.5 L 23.257812 15.75 C 23.069812 11.487 22.467922 8 21.919922 8 C 21.370922 8 21.500938 7.3411094 22.210938 6.5371094 C 22.919938 5.7331094 23.613 5.0581094 23.75 5.0371094 z M 35.992188 8.0058594 C 35.247188 8.4658594 35.340109 9.0362656 36.287109 9.8222656 C 37.239109 10.612266 46.799984 11.051375 67.083984 11.234375 L 96.5 11.5 L 96.761719 52.25 L 97.021484 93 L 56.011719 93 L 15 93 L 14.964844 90.75 C 14.946844 89.513 14.833844 75.45 14.714844 59.5 C 14.529844 34.485 14.294 30.5 13 30.5 C 11.698 30.5 11.5 34.719703 11.5 62.470703 L 11.5 94.441406 L 14 95.763672 C 16.011 96.827672 24.307125 96.964891 56.453125 96.462891 C 94.751125 95.864891 96.477625 95.756844 98.140625 93.839844 C 99.722625 92.015844 99.882797 88.245406 99.966797 51.066406 C 100.0428 17.375406 99.817969 10.092672 98.667969 9.1386719 C 97.134969 7.8656719 37.949187 6.7958594 35.992188 8.0058594 z M 35.359375 11.230469 C 35.219549 11.227261 35.107016 11.581266 35.078125 12.214844 C 34.917125 15.716844 38.256422 16.106719 64.357422 15.636719 C 78.281422 15.385719 90.298547 15.566109 91.060547 16.037109 C 92.200547 16.741109 92.450656 23.352266 92.472656 53.197266 L 92.5 89.5 L 81.5 89.310547 C 75.45 89.206547 59.494922 88.889422 46.044922 88.607422 C 29.357922 88.257422 21.177922 88.436922 20.294922 89.169922 C 19.582922 89.760922 18.948766 90.076094 18.884766 89.871094 C 18.821766 89.667094 18.648906 76 18.503906 59.5 C 18.357906 43 18.177516 29.275 18.103516 29 C 18.029516 28.725 17.533 29.175 17 30 C 15.42 32.444 15.698875 89.506031 17.296875 90.832031 C 18.168875 91.555031 30.753203 91.929609 55.658203 91.974609 C 86.424203 92.029609 92.919578 91.801906 93.892578 90.628906 C 94.736578 89.611906 95.115187 78.651875 95.242188 51.546875 C 95.393187 19.490875 95.202937 13.734781 93.960938 12.925781 C 93.099938 12.365781 80.899047 12.083281 64.248047 12.238281 C 46.110047 12.406281 35.848125 12.142 35.578125 11.5 C 35.502328 11.319531 35.427662 11.232035 35.359375 11.230469 z M 54.457031 17.994141 C 50.961531 17.859391 47.334297 18.136828 46.091797 18.923828 C 45.316797 19.413828 44.004734 19.555281 43.177734 19.238281 C 42.204734 18.864281 41.925672 19.069359 42.388672 19.818359 C 42.856672 20.574359 42.566734 20.771812 41.552734 20.382812 C 40.696734 20.053812 40 20.308172 40 20.951172 C 40 21.592172 39.617391 21.88175 39.150391 21.59375 C 38.684391 21.30475 37.446391 21.848781 36.400391 22.800781 C 35.355391 23.752781 33.202234 25.536625 31.615234 26.765625 C 30.028234 27.994625 29.096922 29 29.544922 29 C 29.992922 29 28.851812 30.347141 27.007812 31.994141 C 25.163812 33.640141 23.953359 35.286344 24.318359 35.652344 C 24.684359 36.017344 24.485906 36.913531 23.878906 37.644531 C 23.272906 38.375531 23.029891 39.631547 23.337891 40.435547 C 23.684891 41.339547 23.421437 41.714969 22.648438 41.417969 C 20.650437 40.651969 20.481734 56.925203 22.427734 62.783203 C 23.289734 65.378203 23.971359 67.861687 23.943359 68.304688 C 23.834359 70.016687 34.771719 79.623516 39.511719 81.978516 C 46.733719 85.565516 57.422187 85.955781 65.492188 82.925781 C 74.038188 79.716781 81.751437 71.745 84.773438 63 C 87.263437 55.794 87.641703 52.486703 85.845703 53.595703 C 85.171703 54.012703 84.960844 53.872766 85.339844 53.259766 C 85.696844 52.682766 85.204141 51.906109 84.244141 51.537109 C 82.592141 50.900109 82.593484 50.813094 84.271484 49.871094 C 85.245484 49.324094 85.741047 48.342453 85.373047 47.689453 C 85.210734 47.399664 85.152399 47.223415 85.1875 47.166016 C 85.191485 47.160641 85.199081 47.153353 85.205078 47.150391 C 85.29722 47.114683 85.599016 47.330594 86.095703 47.792969 C 87.270703 48.885969 87.272375 49.212641 86.109375 49.931641 C 85.041375 50.591641 85.328437 51.168391 87.398438 52.525391 C 90.947437 54.850391 91.706375 53.799344 89.109375 50.152344 C 87.949375 48.523344 87 46.472703 87 45.595703 C 87 43.029703 85.04225 43.759047 83.90625 46.748047 C 83.33125 48.260047 82.137906 50.294484 81.253906 51.271484 C 80.021906 52.632484 79.922219 53.322609 80.824219 54.224609 C 81.725219 55.125609 82 55.119219 82 54.199219 C 82 53.539219 82.490844 53 83.089844 53 C 84.253844 53 83.645828 60.1575 82.298828 62.3125 C 81.889828 62.9655 81.481625 63.99275 81.390625 64.59375 C 81.023625 66.99775 76.045141 73.724375 72.869141 76.109375 C 64.005141 82.766375 51.547453 84.451391 42.064453 80.275391 C 39.003453 78.927391 35.788922 77.189156 34.919922 76.410156 C 34.049922 75.632156 33.037922 75.222047 32.669922 75.498047 C 32.480172 75.640359 32.36075 75.693677 32.326172 75.666016 L 32.324219 75.664062 C 32.323323 75.663074 32.321056 75.659342 32.320312 75.658203 C 32.303785 75.62213 32.347219 75.526578 32.457031 75.376953 C 32.708031 75.033953 31.754891 73.233953 30.337891 71.376953 C 28.921891 69.518953 28.127266 68 28.572266 68 C 29.018266 68 28.552109 67.393344 27.537109 66.652344 C 26.523109 65.910344 25.995281 64.815703 26.363281 64.220703 C 26.731281 63.624703 26.568 62.851 26 62.5 C 25.432 62.149 25.225969 61.443641 25.542969 60.931641 C 25.858969 60.419641 25.615 60 25 60 C 24.385 60 24.172344 59.529078 24.527344 58.955078 C 24.882344 58.381078 24.624078 57.253266 23.955078 56.447266 C 23.154078 55.482266 22.973828 53.532234 23.423828 50.740234 C 23.799828 48.408234 24.158703 45.938 24.220703 45.25 C 24.282703 44.563 24.610219 44 24.949219 44 C 25.287219 44 25.660344 42.838922 25.777344 41.419922 C 26.168344 36.701922 35.453047 25.937359 38.373047 26.818359 C 38.853047 26.962359 38.9375 26.276016 38.5625 25.291016 C 38.0525 23.951016 38.169391 23.785766 39.025391 24.634766 C 40.224391 25.823766 44 25.332328 44 23.986328 C 44 23.557328 48.388 23.346578 53.75 23.517578 C 65.153 23.881578 66 24.005031 66 25.332031 C 66 25.882031 66.272469 26.059562 66.605469 25.726562 C 66.939469 25.392563 68.149922 25.993547 69.294922 27.060547 C 70.439922 28.127547 71.950344 29 72.652344 29 C 73.354344 29 74.402469 29.882891 74.980469 30.962891 C 75.598469 32.115891 76.643625 32.690469 77.515625 32.355469 C 79.021625 31.777469 79.626 29.006234 78.25 28.990234 C 77.838 28.986234 75.813 27.382734 73.75 25.427734 C 71.688 23.472734 70 22.181594 70 22.558594 C 70 22.935594 69.255703 22.627047 68.345703 21.873047 C 67.436703 21.118047 65.930047 20.629109 64.998047 20.787109 C 64.067047 20.945109 62.73225 20.382109 62.03125 19.537109 C 61.31575 18.675109 57.952531 18.128891 54.457031 17.994141 z M 42.802734 35.697266 L 39.576172 39.025391 L 36.351562 42.353516 L 36.630859 56.275391 L 36.910156 70.197266 L 39.910156 70.197266 C 42.785156 70.197266 42.922797 69.998766 43.216797 65.384766 C 43.600797 59.378766 45.873188 59.501156 45.992188 65.535156 C 46.112188 71.636156 47.410156 71.938234 47.410156 65.865234 C 47.410156 62.292234 47.811938 60.697266 48.710938 60.697266 C 49.605937 60.697266 49.970812 62.116094 49.882812 65.246094 C 49.812812 67.747094 50.127031 70.023688 50.582031 70.304688 C 51.037031 70.585687 51.410156 68.539812 51.410156 65.757812 C 51.410156 62.975812 51.860156 60.697266 52.410156 60.697266 C 52.960156 60.697266 53.442422 61.034266 53.482422 61.447266 C 53.523422 61.860266 53.705719 63.917578 53.886719 66.017578 C 54.388719 71.852578 55.410156 71.69425 55.410156 65.78125 C 55.410156 62.02525 55.766156 60.649219 56.660156 60.949219 C 57.387156 61.193219 57.910156 63.075266 57.910156 65.447266 C 57.910156 67.690266 58.247156 69.863344 58.660156 70.277344 C 59.073156 70.691344 59.410156 68.66925 59.410156 65.78125 C 59.410156 62.02725 59.766156 60.649266 60.660156 60.947266 C 61.394156 61.192266 61.934703 63.18625 61.970703 65.78125 C 62.029703 69.99925 62.175703 70.212719 65.220703 70.511719 L 68.410156 70.824219 L 68.410156 53.261719 L 68.410156 35.697266 L 55.605469 35.697266 L 42.802734 35.697266 z M 54.501953 38.691406 C 55.082612 38.67894 55.413812 39.865094 54.976562 42.197266 C 54.365563 45.452266 54.497234 45.697266 56.865234 45.697266 C 60.612234 45.697266 59.968156 47.670422 56.160156 47.857422 L 52.910156 48.017578 L 56.160156 48.421875 C 57.948156 48.643875 59.410156 49.246719 59.410156 49.761719 C 59.410156 50.723719 57.973625 51.084234 55.515625 50.740234 C 53.769625 50.495234 52.445781 52.512266 52.425781 55.447266 C 52.416781 56.803266 51.796234 57.697266 50.865234 57.697266 C 49.640234 57.697266 49.456563 56.970266 49.976562 54.197266 C 50.600563 50.871266 50.492313 50.697266 47.820312 50.697266 C 44.518312 50.697266 45.636156 49.096922 49.410156 48.419922 C 50.335344 48.253953 50.827483 48.140864 50.855469 48.058594 L 50.857422 48.056641 L 50.857422 48.054688 L 50.857422 48.052734 L 50.857422 48.050781 L 50.857422 48.048828 L 50.857422 48.046875 L 50.855469 48.044922 L 50.855469 48.042969 C 50.800523 47.950684 50.086523 47.893656 48.660156 47.833984 C 44.474156 47.658984 44.430563 45.921719 48.601562 45.511719 C 51.260562 45.250719 51.934859 44.654266 52.630859 41.947266 C 53.190312 39.772422 53.956486 38.703117 54.501953 38.691406 z " />
</svg>
