<?xml version="1.0" encoding="UTF-8" standalone="no"?>
<svg
   width="111"
   height="103"
   viewBox="0 0 111 103"
   version="1.1"
   id="svg2"
   sodipodi:docname="repeat.svg"
   inkscape:version="1.4.2 (f4327f4, 2025-05-13)"
   xmlns:inkscape="http://www.inkscape.org/namespaces/inkscape"
   xmlns:sodipodi="http://sodipodi.sourceforge.net/DTD/sodipodi-0.dtd"
   xmlns="http://www.w3.org/2000/svg"
   xmlns:svg="http://www.w3.org/2000/svg">
  <defs
     id="defs2" />
  <sodipodi:namedview
     id="namedview2"
     pagecolor="#505050"
     bordercolor="#eeeeee"
     borderopacity="1"
     inkscape:showpageshadow="0"
     inkscape:pageopacity="0"
     inkscape:pagecheckerboard="0"
     inkscape:deskcolor="#505050"
     inkscape:zoom="8.3009709"
     inkscape:cx="55.535673"
     inkscape:cy="51.5"
     inkscape:window-width="1920"
     inkscape:window-height="1057"
     inkscape:window-x="-8"
     inkscape:window-y="-8"
     inkscape:window-maximized="1"
     inkscape:current-layer="svg2" />
  <path
     id="path1"
     style="fill: rgb(190, 93, 85); paint-order: stroke; fill-rule: evenodd;"
     d="M 18.650391 8.4082031 C 17.688391 8.9752031 16.900391 10.037578 16.900391 10.767578 C 16.900391 12.943578 14.446375 14.485438 13.109375 13.148438 C 12.251375 12.290438 11.770594 12.484828 11.183594 13.923828 C 10.752594 14.977828 10.400391 33.254063 10.400391 54.539062 C 10.400391 84.781063 10.6815 93.520344 11.6875 94.527344 C 12.6975 95.536344 21.837031 95.819125 53.832031 95.828125 C 92.614031 95.839125 94.795922 95.743547 96.794922 93.935547 C 98.870922 92.057547 98.900391 91.451641 98.900391 50.806641 C 98.900391 18.226641 98.628563 9.3598125 97.601562 8.5078125 C 95.845562 7.0498125 21.116391 6.9552031 18.650391 8.4082031 z M 57.400391 10.339844 C 77.108391 10.339844 92.984641 10.587625 92.681641 10.890625 C 91.993641 11.578625 22.757359 11.529797 22.068359 10.841797 C 21.792359 10.565797 37.692391 10.339844 57.400391 10.339844 z M 94.25 11.517578 C 94.344491 11.508986 94.451719 11.559453 94.566406 11.673828 C 94.932406 12.040828 94.932406 12.640813 94.566406 13.007812 C 94.199406 13.373812 93.900391 13.072844 93.900391 12.339844 C 93.900391 11.835906 94.04212 11.536482 94.25 11.517578 z M 17.900391 14.490234 L 53.224609 14.498047 C 72.653609 14.502047 89.060594 14.821031 89.683594 15.207031 C 91.066594 16.061031 92.106172 57.786844 91.201172 76.089844 L 90.595703 88.339844 L 54.806641 88.339844 C 35.122641 88.339844 18.807781 87.999031 18.550781 87.582031 C 17.991781 86.679031 17.631109 61.479062 17.787109 34.164062 L 17.900391 14.490234 z M 94.742188 14.845703 C 95.104187 14.292703 95.518109 30.673047 95.662109 51.248047 C 95.899109 84.994047 95.761812 88.836047 94.257812 90.498047 C 92.693813 92.226047 90.230187 92.339844 54.367188 92.339844 C 23.381187 92.339844 15.931578 92.082469 15.017578 90.980469 C 14.231578 90.032469 13.863688 78.778469 13.804688 53.730469 C 13.758687 33.990469 13.865969 17.164844 14.042969 16.339844 C 14.219969 15.514844 14.597812 31.939844 14.882812 52.839844 L 15.400391 90.839844 L 53.400391 91.080078 C 74.300391 91.213078 91.981406 90.951094 92.691406 90.496094 C 93.708406 89.846094 93.994203 81.795719 94.033203 52.761719 C 94.060203 32.461719 94.380187 15.398703 94.742188 14.845703 z M 50.638672 17.5625 C 47.301787 17.664629 44.132797 18.215891 41.591797 19.244141 C 33.048797 22.701141 26.340734 28.781844 22.177734 36.839844 C 19.867734 41.312844 19.614625 42.873672 19.765625 51.638672 C 19.959625 62.836672 21.490328 67.145453 27.736328 74.064453 C 30.804328 77.462453 31.808094 78.049453 32.871094 77.064453 C 33.342625 76.627484 33.638777 76.445343 33.708984 76.519531 C 33.748219 76.568592 33.705312 76.713203 33.570312 76.955078 C 32.723312 78.474078 35.538906 80.828469 40.628906 82.855469 C 47.040906 85.409469 66.102547 84.199281 68.060547 81.113281 C 68.505547 80.413281 68.875766 80.230031 68.884766 80.707031 C 68.885016 80.721937 68.890653 80.736786 68.896484 80.746094 C 69.097774 81.012101 71.917426 78.643352 75.330078 75.330078 C 81.900078 68.952078 85.635891 62.402891 86.087891 56.462891 C 86.258891 54.218891 86.829281 53.339844 88.113281 53.339844 C 89.096281 53.339844 89.900391 52.881313 89.900391 52.320312 C 89.900391 51.150312 85.117391 43.339844 84.400391 43.339844 C 83.642391 43.339844 78.900391 51.1835 78.900391 52.4375 C 78.900391 53.0625 79.739625 53.353938 80.765625 53.085938 C 82.456625 52.642938 82.547281 52.966453 81.738281 56.564453 C 78.832281 69.500453 71.088516 77.946672 60.353516 79.888672 C 58.179516 80.281672 55.609531 81.010766 54.644531 81.509766 C 53.492531 82.103766 51.319313 81.883234 48.320312 80.865234 C 45.807313 80.011234 43.335172 79.571719 42.826172 79.886719 C 42.317172 80.201719 41.900391 79.980437 41.900391 79.398438 C 41.900391 78.816437 41.085844 78.339844 40.089844 78.339844 C 39.092844 78.339844 37.269109 77.401906 36.037109 76.253906 C 34.805109 75.105906 33.121875 74.424234 32.296875 74.740234 C 31.452875 75.064234 31.061344 74.886984 31.402344 74.333984 C 31.736344 73.793984 30.828813 71.800297 29.382812 69.904297 C 20.974812 58.880297 20.987969 44.059531 29.417969 33.019531 C 38.170969 21.555531 54.808031 18.407312 67.457031 25.820312 C 69.713031 27.142312 72.140563 28.92525 72.851562 29.78125 C 74.464562 31.72525 77.900391 31.826688 77.900391 29.929688 C 77.900391 28.024688 72.716078 23.786734 66.580078 20.677734 C 62.226953 18.471484 56.200146 17.392285 50.638672 17.5625 z M 38.458984 22.339844 C 39.292984 22.339844 38.897141 23.223547 37.744141 23.935547 C 37.029141 24.378547 36.861688 24.209141 37.304688 23.494141 C 37.696687 22.859141 38.215984 22.339844 38.458984 22.339844 z M 43.242188 33.9375 L 40.017578 37.265625 L 36.791016 40.59375 L 37.070312 54.515625 L 37.349609 68.4375 L 40.349609 68.4375 C 43.224609 68.4375 43.36225 68.237047 43.65625 63.623047 C 44.04025 57.617047 46.312641 57.739438 46.431641 63.773438 C 46.551641 69.874437 47.849609 70.176516 47.849609 64.103516 C 47.849609 60.530516 48.251391 58.9375 49.150391 58.9375 C 50.045391 58.9375 50.410266 60.354375 50.322266 63.484375 C 50.252266 65.985375 50.568437 68.263922 51.023438 68.544922 C 51.478437 68.825922 51.849609 66.778094 51.849609 63.996094 C 51.849609 61.214094 52.299609 58.9375 52.849609 58.9375 C 53.399609 58.9375 53.883828 59.2745 53.923828 59.6875 C 53.964828 60.1005 54.145172 62.155859 54.326172 64.255859 C 54.828172 70.090859 55.849609 69.932531 55.849609 64.019531 C 55.849609 60.263531 56.205609 58.889453 57.099609 59.189453 C 57.826609 59.433453 58.349609 61.313547 58.349609 63.685547 C 58.349609 65.928547 58.686609 68.103578 59.099609 68.517578 C 59.512609 68.931578 59.849609 66.907531 59.849609 64.019531 C 59.849609 60.265531 60.205609 58.8895 61.099609 59.1875 C 61.833609 59.4325 62.374156 61.424531 62.410156 64.019531 C 62.469156 68.237531 62.615156 68.451 65.660156 68.75 L 68.849609 69.064453 L 68.849609 51.5 L 68.849609 33.9375 L 56.046875 33.9375 L 43.242188 33.9375 z M 54.943359 36.929688 C 55.524018 36.917222 55.853266 38.105328 55.416016 40.4375 C 54.805016 43.6925 54.936687 43.9375 57.304688 43.9375 C 61.051688 43.9375 60.407609 45.910656 56.599609 46.097656 L 53.349609 46.257812 L 56.599609 46.660156 C 58.387609 46.882156 59.849609 47.485 59.849609 48 C 59.849609 48.962 58.413078 49.322516 55.955078 48.978516 C 54.209078 48.733516 52.885234 50.7525 52.865234 53.6875 C 52.856234 55.0435 52.235687 55.9375 51.304688 55.9375 C 50.079688 55.9375 49.896016 55.2105 50.416016 52.4375 C 51.040016 49.1115 50.933719 48.9375 48.261719 48.9375 C 44.959719 48.9375 46.075609 47.335203 49.849609 46.658203 C 50.766609 46.493703 51.259025 46.382833 51.294922 46.300781 L 51.296875 46.298828 L 51.296875 46.296875 L 51.296875 46.294922 C 51.296904 46.294207 51.296919 46.289773 51.296875 46.289062 L 51.296875 46.287109 L 51.296875 46.285156 L 51.296875 46.283203 L 51.294922 46.28125 C 51.239976 46.188965 50.525977 46.131937 49.099609 46.072266 C 44.913609 45.897266 44.871969 44.16 49.042969 43.75 C 51.701969 43.489 52.374313 42.8945 53.070312 40.1875 C 53.629766 38.012656 54.397892 36.941398 54.943359 36.929688 z M 86.517578 49.964844 C 86.52322 50.223343 86.423003 50.421118 86.216797 50.560547 A 2.5309999 2.8610001 0 0 0 86.517578 49.964844 z M 81.923828 50.150391 A 2.5309999 2.8610001 0 0 0 82.0625 50.419922 C 82.008967 50.408734 81.954913 50.398378 81.900391 50.386719 C 81.797343 50.36461 81.812428 50.278773 81.923828 50.150391 z " />
</svg>
