<svg xmlns="http://www.w3.org/2000/svg" width="96" height="132" viewBox="0 0 96 132" version="1.1"><path d="M 45.750 51.092 C 35.987 60.940, 28 69.448, 28 69.998 C 28 70.580, 31.252 71.006, 35.750 71.015 C 46.365 71.036, 46.905 71.527, 43.979 78.500 C 40.256 87.374, 37.812 93.477, 35.668 99.260 L 33.163 106.020 35.831 104.078 C 37.299 103.009, 46.125 94.474, 55.445 85.111 C 66.883 73.620, 71.921 67.917, 70.945 67.565 C 70.150 67.277, 66.125 66.920, 62 66.771 L 54.500 66.500 54.706 63.500 C 54.819 61.850, 56.018 58.025, 57.370 55 C 64.123 39.891, 66.438 32.954, 64.680 33.093 C 64.031 33.144, 55.513 41.244, 45.750 51.092" stroke="none" fill="#cdcbcb" fill-rule="evenodd"/></svg>