<?xml version="1.0" encoding="UTF-8" standalone="no"?>
<svg
   width="96"
   height="133"
   viewBox="0 0 96 133"
   version="1.1"
   id="svg3"
   sodipodi:docname="shuffle.svg"
   inkscape:version="1.4.2 (f4327f4, 2025-05-13)"
   xmlns:inkscape="http://www.inkscape.org/namespaces/inkscape"
   xmlns:sodipodi="http://sodipodi.sourceforge.net/DTD/sodipodi-0.dtd"
   xmlns="http://www.w3.org/2000/svg"
   xmlns:svg="http://www.w3.org/2000/svg">
  <defs
     id="defs3" />
  <sodipodi:namedview
     id="namedview3"
     pagecolor="#505050"
     bordercolor="#eeeeee"
     borderopacity="1"
     inkscape:showpageshadow="0"
     inkscape:pageopacity="0"
     inkscape:pagecheckerboard="0"
     inkscape:deskcolor="#505050"
     inkscape:zoom="6.4285714"
     inkscape:cx="48.066667"
     inkscape:cy="66.5"
     inkscape:window-width="1920"
     inkscape:window-height="1057"
     inkscape:window-x="-8"
     inkscape:window-y="-8"
     inkscape:window-maximized="1"
     inkscape:current-layer="svg3" />
  <path
     id="path1"
     d="M 64.667969,34.128906 C 63.521778,34.150034 59.023734,38.474969 45.464844,52.25 L 27.5,70.5 l 8.796875,0.289062 c 6.19,0.203 8.948594,0.685047 9.308594,1.623047 0.281,0.733 -1.119328,5.325985 -3.111328,10.208985 -6.271,15.37 -7.972407,20.232676 -7.316407,20.888676 0.937,0.937 36.0285,-34.367395 35.3125,-35.525395 C 70.156234,67.443375 66.335,67 62,67 c -4.335,0 -8.138125,-0.416781 -8.453125,-0.925781 -0.314,-0.509 -0.05197,-2.196 0.582031,-3.75 C 54.762906,60.770219 55.841344,58.15 56.527344,56.5 59.709344,48.848 65,35.189953 65,34.626953 c 0,-0.320375 -0.09414,-0.502432 -0.332031,-0.498047 z m 10.197265,6.197266 c -0.27939,0.0052 -1.376593,0.999859 -4.68164,4.169922 l -4.376953,4.199218 2.144531,0.06836 c 1.508,0.047 2.179578,0.157047 2.267578,0.373047 0.069,0.168 -0.272812,1.225609 -0.757812,2.349609 -1.529,3.538 -1.943204,4.656641 -1.783204,4.806641 0.228,0.216 8.779469,-7.909782 8.605469,-8.175781 -0.082,-0.125 -1.012359,-0.226563 -2.068359,-0.226563 -1.057,0 -1.983547,-0.09589 -2.060547,-0.212891 -0.076,-0.117 -0.01142,-0.505281 0.142578,-0.863281 0.155,-0.358 0.416984,-0.959844 0.583984,-1.339844 0.775,-1.76 2.064453,-4.905156 2.064453,-5.035156 0,-0.07356 -0.02209,-0.114365 -0.08008,-0.113281 z M 31.167969,79.259766 c -0.304869,0.04217 -1.421375,1.059672 -4.664063,4.169922 l -4.376953,4.199218 2.142578,0.06641 c 1.508,0.047 2.179578,0.159 2.267578,0.375 0.069,0.168001 -0.272812,1.22561 -0.757812,2.34961 -1.529,3.538 -1.943203,4.656641 -1.783203,4.80664 0.228,0.216 8.781422,-7.909781 8.607422,-8.175781 -0.082,-0.125 -1.014313,-0.226562 -2.070313,-0.226562 -1.057,0 -1.983547,-0.09589 -2.060547,-0.212891 -0.076,-0.117 -0.01142,-0.505281 0.142578,-0.863281 0.155,-0.358 0.416985,-0.961797 0.583985,-1.341797 0.775,-1.76 2.066406,-4.903203 2.066406,-5.033203 0,-0.08025 -0.0273,-0.123014 -0.09766,-0.113281 z"
     sodipodi:nodetypes="scccccscscscssscccccccscccssscccccccscccss" />
</svg>
