<svg xmlns="http://www.w3.org/2000/svg" width="42" height="38" viewBox="0 0 42 38" version="1.1"><path d="M 15.310 7.635 C 14.904 8.693, 15.161 9.554, 15.962 9.821 C 18.138 10.546, 25 17.135, 25 18.500 C 25 19.922, 17.529 27, 16.029 27 C 15.497 27, 15.319 27.667, 15.631 28.482 C 16.410 30.512, 18.559 29.238, 24.276 23.357 L 28.904 18.596 24.702 14.020 C 22.391 11.503, 19.483 8.644, 18.240 7.667 C 16.095 5.982, 15.945 5.980, 15.310 7.635 M 23.332 7.577 C 22.903 8.696, 23.142 9.547, 23.962 9.821 C 26.138 10.546, 33 17.135, 33 18.500 C 33 19.938, 25.521 27, 23.997 27 C 22.651 27, 22.726 29.713, 24.096 30.559 C 25.108 31.185, 26.981 29.488, 34.115 21.478 L 36.807 18.455 32.154 13.475 C 25.266 6.103, 24.177 5.375, 23.332 7.577 M 7.750 15.165 C 5.687 16.282, 4 17.795, 4 18.528 C 4 20.235, 12.112 24.318, 14.565 23.845 C 15.592 23.648, 17.095 22.303, 17.906 20.858 C 19.228 18.503, 19.203 17.959, 17.667 15.615 C 15.614 12.481, 12.930 12.359, 7.750 15.165 M 10.363 17.497 C 10.017 18.398, 10.196 19.596, 10.761 20.161 C 12.391 21.791, 15.500 20.692, 15.500 18.486 C 15.500 15.943, 11.272 15.128, 10.363 17.497 M 5.694 17.639 C 4.895 18.438, 5.798 20, 7.059 20 C 7.577 20, 8 19.325, 8 18.500 C 8 16.954, 6.820 16.513, 5.694 17.639" stroke="none" fill="#cec7c5" fill-rule="evenodd"/></svg>