<?xml version="1.0" encoding="UTF-8" standalone="no"?>
<svg
   width="96"
   height="132"
   viewBox="0 0 96 132"
   version="1.1"
   id="svg1"
   sodipodi:docname="smart-shuffle.svg"
   inkscape:version="1.4.2 (f4327f4, 2025-05-13)"
   xmlns:inkscape="http://www.inkscape.org/namespaces/inkscape"
   xmlns:sodipodi="http://sodipodi.sourceforge.net/DTD/sodipodi-0.dtd"
   xmlns="http://www.w3.org/2000/svg"
   xmlns:svg="http://www.w3.org/2000/svg">
  <defs
     id="defs1" />
  <sodipodi:namedview
     id="namedview1"
     pagecolor="#505050"
     bordercolor="#eeeeee"
     borderopacity="1"
     inkscape:showpageshadow="0"
     inkscape:pageopacity="0"
     inkscape:pagecheckerboard="0"
     inkscape:deskcolor="#505050"
     inkscape:zoom="0.90572034"
     inkscape:cx="544.31813"
     inkscape:cy="472"
     inkscape:window-width="1920"
     inkscape:window-height="1057"
     inkscape:window-x="-8"
     inkscape:window-y="-8"
     inkscape:window-maximized="1"
     inkscape:current-layer="svg1" />
  <path
     d="m 20.310192,0.07407514 c -1.989545,0.051556 -3.294652,0.10780959 -4.210329,0.19729863 -0.915678,0.089489 -1.442042,0.21244835 -1.873985,0.39753327 C 13.738151,0.87783221 12.915955,1.4108909 11.478964,2.475599 10.041854,3.5403069 7.9900664,5.1367818 5.0430353,7.4725393 3.4194319,8.7593257 2.3787991,9.6127598 1.7022292,10.233193 1.0257766,10.853627 0.71362202,11.241178 0.54697513,11.596316 0.26394554,12.199485 0.12031682,12.543349 0.05278901,13.824381 -0.0147388,15.105412 -0.00593081,17.323614 0.0160304,21.675106 l 0.02055195,4.081027 0.02055194,4.081029 0.42982918,1.644155 0.42982918,1.644156 c 0.47915385,1.832764 0.84392135,3.203049 1.11203625,4.174158 0.2681147,0.971108 0.4394592,1.543156 0.5316494,1.779798 0.03394,0.08702 0.1139163,0.220669 0.2155017,0.365706 0.1015854,0.145039 0.2246621,0.301586 0.3446854,0.434527 0.4169109,0.461421 0.2851435,0.67387 2.0571906,0.769348 1.7720471,0.09559 5.447909,0.07446 13.479843,0.0687 8.424651,-0.0061 14.312137,0.01774 18.225814,0.08021 3.913676,0.06259 5.853428,0.163827 6.382728,0.312976 0.481386,0.135526 0.806223,0.269876 1.029242,0.445919 0.223017,0.176158 0.344215,0.394128 0.41832,0.69724 0.05778,0.23617 0.06918,0.572752 0.04051,0.931061 -0.02865,0.358308 -0.09747,0.738343 -0.2,1.06142 l -0.03922,0.123663 -0.03922,0.123664 -9.213494,-0.0317 -9.213494,-0.03171 c -6.965934,-0.02396 -11.60116,-0.03136 -14.539148,-0.01972 -2.9378706,0.01162 -4.1785033,0.04227 -4.3551325,0.09442 -0.4084551,0.12061 -0.6232524,0.205636 -0.7323538,0.463182 -0.1091014,0.257545 -0.1126246,0.687491 -0.09865,1.49806 0.00857,0.498296 0.028068,0.882676 0.060481,1.171813 0.032413,0.289135 0.077863,0.482911 0.1383439,0.599764 0.1186141,0.229243 0.2106869,0.379096 1.5543141,1.817967 1.3437447,1.43887 3.9390433,4.166642 9.0639923,9.552072 0.969818,1.019142 2.25766,2.378505 3.554077,3.750788 1.296416,1.372165 2.601172,2.757131 3.605044,3.827124 0.24322,0.259189 0.702056,0.74586 1.245567,1.320962 0.543393,0.575218 1.171344,1.238988 1.752669,1.85261 1.431942,1.51133 2.686549,2.840748 4.298644,4.558538 1.612094,1.717791 3.58191,3.823719 6.44415,6.887954 2.639339,2.825481 4.289836,4.566524 5.362412,5.630527 1.072577,1.064005 1.567115,1.450968 1.89442,1.568172 0.311214,0.111569 1.338342,0.568526 1.499587,0.482325 0.264239,-0.141515 -0.04098,-34.494143 -0.04098,-34.494143 0,0 1.468229,0.0027 1.482087,0.0027 0.03829,0 0.02419,34.518102 0.0673,34.561086 0.07152,0.0714 0.262007,0.06976 0.684203,-0.0512 0.422314,-0.121081 0.926599,-0.311567 1.326481,-0.518143 0.481737,-0.248973 0.881385,-0.527071 1.570052,-1.193658 0.688548,-0.666588 1.666116,-1.721665 3.303693,-3.5246 0.629712,-0.693363 1.294773,-1.42325 1.858836,-2.040748 0.564063,-0.617498 1.027246,-1.122489 1.253317,-1.365941 0.226071,-0.243453 0.616558,-0.668584 1.063533,-1.15725 0.446976,-0.488667 0.950556,-1.040986 1.4027,-1.538929 1.423956,-1.56829 3.133994,-3.441336 4.762648,-5.218549 1.628771,-1.777215 3.176156,-3.458482 4.275156,-4.643212 4.345738,-4.684788 8.138099,-8.758416 11.070332,-11.892764 2.932234,-3.134348 5.004223,-5.32953 5.90933,-6.257537 0.377921,-0.387552 0.745154,-0.786025 1.032177,-1.115912 0.287023,-0.32977 0.493951,-0.590957 0.551379,-0.703815 0.06847,-0.134234 0.125661,-0.32989 0.170288,-0.580036 0.04463,-0.250147 0.0768,-0.554785 0.09524,-0.906986 0.02455,-0.468701 0.0303,-0.75502 0.0021,-0.981679 -0.02818,-0.226657 -0.09043,-0.393657 -0.201879,-0.623956 -0.07047,-0.145508 -0.163594,-0.296418 -0.25684,-0.422313 -0.09325,-0.125895 -0.186729,-0.226776 -0.257779,-0.272343 -0.11016,-0.07058 -0.831944,-0.110042 -3.432762,-0.126131 -2.60082,-0.01608 -7.080555,-0.0089 -14.706852,0.01398 l -8.940566,0.02677 -8.940446,0.02677 -0.860951,1.071285 c -0.86553,1.077039 -1.785552,2.357484 -2.638634,3.656719 -0.853083,1.299236 -1.639458,2.61726 -2.237695,3.769579 -0.243101,0.468232 -0.540927,0.920843 -0.757838,1.189781 -0.216912,0.269054 -0.353141,0.35455 -0.273165,0.08866 0.01938,-0.06459 0.07058,-0.334703 0.137404,-0.717791 0.06682,-0.383206 0.149383,-0.879389 0.231356,-1.396122 0.276923,-1.745037 0.468702,-2.917789 0.644039,-3.904635 0.175338,-0.986846 0.334234,-1.787902 0.545273,-2.789428 0.166765,-0.791308 0.269407,-1.33611 0.325425,-1.770754 0.05602,-0.434527 0.06542,-0.758896 0.04568,-1.108867 -0.02936,-0.52331 -0.13623,-1.010802 -0.319552,-1.460243 -0.183324,-0.449559 -0.443218,-0.861068 -0.778744,-1.232413 -0.351026,-0.38849 -0.694655,-0.65038 -1.224778,-0.863298 -0.530122,-0.212919 -1.246622,-0.3771 -2.343273,-0.570053 -0.576394,-0.101467 -1.115912,-0.213387 -1.550556,-0.319319 -0.434644,-0.10593 -0.764297,-0.205753 -0.921079,-0.283146 l -0.26424,-0.130123 -0.264239,-0.130124 0.0021,-0.322959 0.002,-0.322958 c 0.0018,-0.271052 0.02936,-0.486787 0.126013,-0.776394 0.09666,-0.289606 0.26236,-0.653199 0.540222,-1.22008 0.608337,-1.240634 1.562887,-2.932118 2.746445,-4.881616 1.183555,-1.94938 2.596238,-4.156777 4.12084,-6.428999 1.131765,-1.686669 4.46529,-5.575801 4.658597,-5.587192 0.193305,-0.01139 -2.449674,13.764045 -1.572166,14.160522 0.300999,0.135996 9.808796,0.0051 9.817252,0.08292 0.0085,0.07787 -1.999175,2.419728 -2.373925,2.887489 -0.374632,0.467762 -1.784379,2.326598 -1.944449,2.563707 -0.508162,0.753024 -4.557481,8.37204 -3.616437,6.746087 l 2.393185,-0.0064 2.159129,-3.781909 h 7.772979 8.936689 8.936689 8.936689 l 0.287139,-0.156312 0.287141,-0.156195 c 0.3064,-0.166765 0.57287,-0.377216 0.797532,-0.629124 0.224662,-0.251908 0.407398,-0.54539 0.546447,-0.878331 0.04721,-0.112977 0.162419,-0.542573 0.310041,-1.143863 0.147621,-0.60129 0.327539,-1.374278 0.504285,-2.173808 0.176748,-0.799412 0.370993,-1.664825 0.541632,-2.415264 0.17064,-0.75044 0.317675,-1.385671 0.399882,-1.724837 0.309219,-1.275981 0.464591,-1.927772 0.549971,-3.323308 0.08526,-1.395535 0.10041,-3.534815 0.129066,-7.785426 l 0.02693,-3.998324 0.02689,-3.998232 -0.133764,-0.421844 -0.133764,-0.421844 C 94.940164,10.730668 94.917498,10.442353 93.871698,9.5279683 92.825898,8.6135831 90.75708,7.0733619 86.429194,3.82639 84.885215,2.6682 84.008762,2.0165273 83.405945,1.598677 82.803127,1.180944 82.47406,0.99703346 82.025206,0.77425042 81.317632,0.42298838 80.782695,0.23649419 79.106713,0.13655303 77.430732,0.03649444 74.613706,0.02287144 69.341723,0.01723433 L 64.879015,0.01241931 60.416308,0.00760428 59.82911,0.20549011 59.241912,0.40337595 C 58.587537,0.62381021 57.986128,0.86256504 57.397287,1.1386657 56.808444,1.4146489 56.232168,1.7278605 55.628293,2.0972084 55.052485,2.4494099 53.902047,3.2706655 52.79647,4.097793 51.690893,4.9249206 50.630061,5.7578027 50.233467,6.1331399 49.79389,6.5492286 49.426891,6.8226281 49.048148,6.9910367 48.669406,7.1594452 48.278683,7.2227451 47.791544,7.2187521 47.17616,7.2137026 46.937171,7.2508132 46.310865,6.888277 45.684559,6.5256233 44.671054,5.7632049 42.506758,4.1588617 40.919679,2.9824686 39.995898,2.3087171 39.323204,1.866322 38.650393,1.4240442 38.22855,1.2131225 37.645108,0.9625062 36.604007,0.51529595 36.002715,0.28241309 34.918629,0.15780961 33.834544,0.03320613 32.267429,0.01699945 29.294796,0.00314157 27.841481,-0.00366992 26.104078,9.1022123e-4 24.475777,0.01382859 22.847358,0.02674694 21.328041,0.04788609 20.310662,0.07431002 M 22.6106,52.150699 l 0.907574,0.968524 0.907574,0.968644 c 0.499119,0.532822 1.098296,1.169111 1.661418,1.765235 0.563124,0.596124 1.09031,1.151965 1.445565,1.523662 0.355256,0.371697 0.909218,0.953963 1.515442,1.592599 0.606223,0.638637 1.264943,1.333763 1.829593,1.931178 1.808922,1.91368 2.871635,3.035816 3.691833,3.892773 0.820199,0.856956 1.397767,1.448735 2.236285,2.301582 0.452497,0.460128 0.872461,0.878566 1.18438,1.181912 0.311919,0.303348 0.515913,0.491604 0.5367,0.491604 0.20129,0 0.323663,-0.683147 0.374984,-2.294537 0.05132,-1.611389 0.0316,-4.151023 -0.05144,-7.863994 -0.06271,-2.80493 -0.09971,-4.306044 -0.147035,-5.133288 -0.04732,-0.827363 -0.104991,-0.980857 -0.209043,-1.090781 -0.0983,-0.103933 -0.20681,-0.164768 -0.495007,-0.208337 -0.288315,-0.04357 -0.756313,-0.06976 -1.573692,-0.104287 -1.141866,-0.04815 -4.320605,-0.07106 -7.293355,-0.06976 -2.972752,0.0014 -5.739395,0.02701 -6.057187,0.07587 m 33.551457,0.01879 c -0.265297,0.104756 -0.402349,0.208456 -0.477159,1.072342 -0.07481,0.863887 -0.08737,2.487959 -0.103582,5.63358 -0.01691,3.299351 -0.0024,5.66811 0.04815,7.250256 0.0505,1.582147 0.13717,2.377801 0.264474,2.531178 0.07316,0.08831 0.125543,0.125191 0.218909,0.0828 0.09336,-0.04239 0.227714,-0.164064 0.464942,-0.393189 0.326366,-0.315325 2.028419,-2.106397 4.260947,-4.476329 2.232645,-2.369933 4.995766,-5.318491 7.4445,-7.948905 0.195419,-0.209983 0.466823,-0.506516 0.746565,-0.815148 0.27974,-0.308632 0.56782,-0.629359 0.796828,-0.887727 0.229007,-0.25825 0.485495,-0.547621 0.714385,-0.805518 0.228772,-0.258015 0.429947,-0.484674 0.548091,-0.617733 0.118261,-0.133176 0.225718,-0.269172 0.303699,-0.381093 0.07787,-0.111919 0.126248,-0.199645 0.126248,-0.236288 0,-0.08221 -3.735404,-0.12519 -7.522599,-0.127186 -3.787312,-0.002 -7.626531,0.03699 -7.834399,0.119083"
     stroke="none"
     fill="#c2c2c2"
     fill-rule="evenodd"
     id="path1"
     style="stroke-width:0.11744" />
</svg>
